# xmcd
# 
# Track frame offsets:
#     150
#     28837
#     37362
#     67829
#     92074
#     122024
#     146409
#     167240
#     175643
#     193964
#     218447
#     230305
#     254401
# 
# Disc length: 3619
# 
# Revision: 1
# Processed by: cddbd v1.5.2PL0 Copyright (c) Steve Scherf et al.
# Submitted via: fre:ac v1.0.17
# 
DISCID=b60e210d
DTITLE=Masada String Trio - Book of Angels vol. 2 - Azazel
DYEAR=2005
DGENRE=Jazz
TTITLE0=Tufiel
TTITLE1=Mibi
TTITLE2=Tabaet
TTITLE3=Symnay
TTITLE4=Mastema
TTITLE5=Bethor
TTITLE6=Uriel
TTITLE7=Gurid
TTITLE8=Gazriel
TTITLE9=Azazel
TTITLE10=Rssasiel
TTITLE11=Garzanal
TTITLE12=Ahiel
EXTD=YEAR: 2005
EXTT0=
EXTT1=
EXTT2=
EXTT3=
EXTT4=
EXTT5=
EXTT6=
EXTT7=
EXTT8=
EXTT9=
EXTT10=
EXTT11=
EXTT12=
PLAYORDER=
